# xmcd CD database file
#
# Track frame offsets:
#	150
#	14344
#	25151
#	41090
#	63396
#	75637
#	88053
#	109672
#	132122
#	161284
#	182713
#	204075
#	223853
#	256423
#	273483
#
# Disc length: 3952 seconds
#
# Revision: 1
# Processed by: cddbd v1.5.2PL0 Copyright (c) Steve Scherf et al.
# Submitted via: CDex 1.70beta2
#
DISCID=c80f6e0f
DTITLE=Verschiedene - Cuban Traditional Music Son de Cuba
DYEAR=2005
DGENRE=Salsa
TTITLE0=Felix Baloy - Despues De Esta Noche
TTITLE1=Compay Segundo - Te Apartas De Mi
TTITLE2=Jovenes Classicos Del Son - Para Siempre Tenerte
TTITLE3=Elio Reve Y Su Charangon - Changui En La Casa De Nora
TTITLE4=El Piquetón De Felix Rondón - Marea Alta
TTITLE5=Manuel Puntilita Licea - Tinga Talango
TTITLE6=Felix Baloy - El Son de Balay
TTITLE7=El Piquetón De Felix Rondón - Porque Me Quieren Llevar
TTITLE8=Masu Y Su Gran Sonora - Tres Coros Del Son
TTITLE9=Elio Revé Jr. Y Su Charangon - La Visita
TTITLE10=Son 14 - Fuego En La Maya
TTITLE11=Jovenes Classicos Del Son - Colgado En La Pared
TTITLE12=Candido Farbré Y Su Banda - Exitos De Fabré
TTITLE13=Celina Gonzalez - Los Soneras De Mi Cuba
TTITLE14=Son 14 - La Fiesta En La Casa De Juon
EXTD=YEAR: 2005
EXTT0=
EXTT1=
EXTT2=
EXTT3=
EXTT4=
EXTT5=
EXTT6=
EXTT7=
EXTT8=
EXTT9=
EXTT10=
EXTT11=
EXTT12=
EXTT13=
EXTT14=
PLAYORDER=
